<?xml version="1.0" encoding="UTF-8"?>
<svg id="Layer_2" data-name="Layer 2" xmlns="http://www.w3.org/2000/svg" viewBox="0 0 712.49 712.49">
  <defs>
    <style>
      .cls-1 {
        fill: #427a62;
      }
    </style>
  </defs>
  <path class="cls-1" d="M670.01,328.75c-43.55,0-62.48-37.55-79.18-70.68-18.13-35.96-33.78-67.03-74.38-67.03-42.63,0-61.82,34.56-82.14,71.14-18.18,32.73-36.98,66.57-74.46,66.57h-7.21c-43.56,0-62.48-37.55-79.18-70.68-18.13-35.96-33.78-67.03-74.38-67.03-42.63,0-61.82,34.56-82.14,71.14-18.18,32.73-36.98,66.57-74.46,66.57-7.99,0-14.48-6.48-14.48-14.48s6.48-14.48,14.48-14.48c19.07,0,31.29-19.52,49.15-51.68,21.29-38.33,47.79-86.03,107.45-86.03s81.6,45.99,100.23,82.95c17.11,33.95,28.84,54.76,53.33,54.76h7.21c19.07,0,31.29-19.52,49.15-51.68,21.29-38.33,47.79-86.03,107.45-86.03s81.61,45.99,100.23,82.95c17.11,33.95,28.84,54.76,53.33,54.76,7.99,0,14.48,6.48,14.48,14.48s-6.48,14.48-14.48,14.48Z"/>
  <path class="cls-1" d="M418.09,518.2c-13.92,0-28.04-.07-42.23-.22-80.17-.85-146.88-4.17-198.3-9.86-43.28-4.79-103.51-13.71-126.76-35.85-9.28-8.83-11.22-18.06-11.22-24.24s1.94-15.38,11.18-24.26c23.22-22.33,83.42-31.82,126.68-37.02,51.42-6.18,118.13-10.13,198.29-11.76,136.1-2.76,265.91,2.23,267.2,2.28,7.99,.31,14.21,7.04,13.9,15.03-.31,7.99-7.1,14.19-15.03,13.9-1.29-.05-130.35-5.01-265.61-2.26-80.8,1.64-272.29,8.89-305.37,40.7-1.41,1.36-2.29,2.66-2.29,3.4s.86,1.96,2.24,3.28c7.05,6.71,30.7,19.28,109.97,28.04,50.47,5.58,116.22,8.84,195.43,9.69,135.27,1.45,264.21-4.75,265.5-4.81,7.97-.33,14.78,5.77,15.16,13.75,.39,7.99-5.77,14.77-13.75,15.16-1.16,.06-105.44,5.07-224.98,5.07Z"/>
  <path class="cls-1" d="M191.61,328.75c-7.99,0-14.48-6.48-14.48-14.48v-59.11c0-7.99,6.48-14.48,14.48-14.48s14.48,6.48,14.48,14.48v59.11c0,7.99-6.48,14.48-14.48,14.48Z"/>
  <path class="cls-1" d="M514.93,328.75c-7.99,0-14.48-6.48-14.48-14.48v-59.11c0-7.99,6.48-14.48,14.48-14.48s14.48,6.48,14.48,14.48v59.11c0,7.99-6.48,14.48-14.48,14.48Z"/>
</svg>